# xmcd CD database file
#
# Track frame offsets:
#	150
#	20085
#	36852
#	53365
#	71705
#	89095
#	109540
#	124112
#	146080
#	162532
#
# Disc length: 2431 seconds
#
# Revision: 0
# Processed by: cddbd v1.5PL3 Copyright (c) Steve Scherf et al.
# Submitted via: CDex 1.51
#
DISCID=8d097d0a
DTITLE=SONIA - sonia sings french bossa
DYEAR=2002
DGENRE=Vocal
TTITLE0=T'EN VA PAS
TTITLE1=LES EAUX DE MARS
TTITLE2=COMMENT TE DIRE ADIEU
TTITLE3=LA VIE EN ROSE
TTITLE4=ATTENDS OU VA T'EN
TTITLE5=YESTERDAY YES A DAY
TTITLE6=OUVERTURES ECLAIR
TTITLE7=QUO!
TTITLE8=L'AQUO!BONISTE
TTITLE9=UN HOMME ET UNE FEMME
EXTD=YEAR: 2002
EXTT0=
EXTT1=
EXTT2=
EXTT3=
EXTT4=
EXTT5=
EXTT6=
EXTT7=
EXTT8=
EXTT9=
PLAYORDER=
